<svg xmlns="http://www.w3.org/2000/svg" viewBox="0 0 960 540"><defs><linearGradient id="bg" x1="0" y1="1" x2="1" y2="0"><stop stop-color="#15143f"/><stop offset=".48" stop-color="#3c2b96"/><stop offset="1" stop-color="#1378a6"/></linearGradient><linearGradient id="g" x1="0" y1="1" x2="1" y2="0"><stop stop-color="#824cff"/><stop offset=".5" stop-color="#3e7cff"/><stop offset="1" stop-color="#22d8ec"/></linearGradient><filter id="b"><feGaussianBlur stdDeviation="54"/></filter><filter id="s" x="-50%" y="-50%" width="200%" height="200%"><feDropShadow dx="0" dy="24" stdDeviation="21" flood-opacity=".45"/></filter><filter id="n"><feTurbulence type="fractalNoise" baseFrequency=".78" numOctaves="3" seed="27"/></filter></defs><rect width="960" height="540" fill="url(#bg)"/><circle cx="185" cy="95" r="175" fill="#2ee6ff" opacity=".26" filter="url(#b)"/><circle cx="795" cy="125" r="230" fill="#aa74ff" opacity=".48" filter="url(#b)"/><path d="M0 402 960 313v227H0z" fill="#10122e" opacity=".44"/><rect width="960" height="540" filter="url(#n)" opacity=".04"/><g filter="url(#s)" transform="translate(610 95)"><circle cx="163" cy="155" r="112" fill="#fff" fill-opacity=".12" stroke="#fff" stroke-opacity=".45" stroke-width="4"/><circle cx="163" cy="155" r="78" fill="url(#g)"/><g stroke="#fff" stroke-width="4" fill="none"><path d="M163 77 99 114 85 182l51 50 73-10 38-61-28-67z"/><path d="M99 114l64 41 56-61M85 182l78-27 46 67M136 232l27-77"/></g><g fill="#fff"><circle cx="163" cy="77" r="9"/><circle cx="99" cy="114" r="9"/><circle cx="85" cy="182" r="9"/><circle cx="136" cy="232" r="9"/><circle cx="209" cy="222" r="9"/><circle cx="247" cy="161" r="9"/><circle cx="219" cy="94" r="9"/></g><g transform="translate(18 285)"><rect width="290" height="58" rx="19" fill="#fff" fill-opacity=".94"/><rect x="23" y="20" width="90" height="10" rx="5" fill="#824cff"/><rect x="128" y="20" width="64" height="10" rx="5" fill="#3e7cff"/><rect x="208" y="20" width="58" height="10" rx="5" fill="#22d8ec"/></g></g></svg>