<svg xmlns="http://www.w3.org/2000/svg" viewBox="0 0 960 540"><defs><filter id="p"><feColorMatrix type="saturate" values="1.65"/></filter><filter id="s" x="-50%" y="-50%" width="200%" height="200%"><feDropShadow dx="0" dy="20" stdDeviation="20" flood-opacity=".42"/></filter><linearGradient id="g" x1="0" y1="1" x2="1" y2="0"><stop stop-color="#6d28d9"/><stop offset=".48" stop-color="#2563eb"/><stop offset="1" stop-color="#22d3ee"/></linearGradient><radialGradient id="r"><stop stop-color="#c084fc" stop-opacity=".82"/><stop offset="1" stop-color="#7c3aed" stop-opacity="0"/></radialGradient></defs><image href="learning.webp" width="960" height="540" preserveAspectRatio="xMidYMid slice" filter="url(#p)"/><circle cx="805" cy="150" r="235" fill="url(#r)"/><rect width="960" height="540" fill="url(#g)" opacity=".12"/><g filter="url(#s)" transform="translate(620 105)"><circle cx="158" cy="150" r="105" fill="#ffffff" fill-opacity=".15" stroke="#fff" stroke-opacity=".42" stroke-width="3"/><circle cx="158" cy="150" r="72" fill="url(#g)" opacity=".82"/><g stroke="#fff" stroke-width="4" fill="none" opacity=".88"><path d="M158 78 97 112 84 176l49 47 69-9 35-58-26-63z"/><path d="M97 112l61 38 53-57M84 176l74-26 44 64M133 223l25-73"/></g><g fill="#fff"><circle cx="158" cy="78" r="9"/><circle cx="97" cy="112" r="9"/><circle cx="84" cy="176" r="9"/><circle cx="133" cy="223" r="9"/><circle cx="202" cy="214" r="9"/><circle cx="237" cy="156" r="9"/><circle cx="211" cy="93" r="9"/></g><g transform="translate(20 270)"><rect width="276" height="55" rx="18" fill="#fff" fill-opacity=".78"/><rect x="22" y="18" width="85" height="9" rx="4" fill="#6d28d9"/><rect x="120" y="18" width="60" height="9" rx="4" fill="#2563eb"/><rect x="194" y="18" width="58" height="9" rx="4" fill="#22d3ee"/></g></g></svg>