<svg xmlns="http://www.w3.org/2000/svg" viewBox="0 0 960 540"><defs><linearGradient id="bg" x1="0" y1="0" x2="1" y2="1"><stop stop-color="#102a3b"/><stop offset=".5" stop-color="#1e5f8f"/><stop offset="1" stop-color="#0e8f7d"/></linearGradient><linearGradient id="g" x1="0" y1="0" x2="1" y2="1"><stop stop-color="#22d6e8"/><stop offset=".5" stop-color="#4d7cff"/><stop offset="1" stop-color="#2bd0a5"/></linearGradient><filter id="b"><feGaussianBlur stdDeviation="50"/></filter><filter id="s" x="-40%" y="-40%" width="180%" height="180%"><feDropShadow dx="0" dy="23" stdDeviation="19" flood-opacity=".4"/></filter><filter id="n"><feTurbulence type="fractalNoise" baseFrequency=".71" numOctaves="3" seed="29"/></filter></defs><rect width="960" height="540" fill="url(#bg)"/><circle cx="200" cy="100" r="175" fill="#4f7cff" opacity=".27" filter="url(#b)"/><circle cx="790" cy="120" r="220" fill="#2de7c0" opacity=".4" filter="url(#b)"/><path d="M0 397 960 312v228H0z" fill="#0d2533" opacity=".43"/><rect width="960" height="540" filter="url(#n)" opacity=".04"/><g filter="url(#s)" transform="translate(590 100)"><g fill="#fff" fill-opacity=".94"><rect x="20" y="32" width="126" height="86" rx="19"/><rect x="198" y="10" width="126" height="86" rx="19"/><rect x="98" y="160" width="152" height="101" rx="22"/><rect x="15" y="295" width="126" height="69" rx="19"/><rect x="224" y="286" width="116" height="76" rx="19"/></g><g fill="url(#g)"><circle cx="83" cy="75" r="23"/><circle cx="261" cy="53" r="23"/><circle cx="174" cy="210" r="30"/><circle cx="78" cy="330" r="21"/><circle cx="282" cy="324" r="21"/></g><g stroke="#fff" stroke-width="8" fill="none" stroke-linecap="round"><path d="M105 92 143 176M239 77l-39 99M138 239l-47 72M218 239l50 59"/></g><g transform="translate(126 185)"><circle cx="48" cy="48" r="48" fill="#10253c"/><path d="m32 48 13 13 26-32" fill="none" stroke="#54e8d3" stroke-width="10" stroke-linecap="round" stroke-linejoin="round"/></g></g></svg>