<svg xmlns="http://www.w3.org/2000/svg" viewBox="0 0 960 540"><defs><filter id="p"><feColorMatrix type="saturate" values="1.55"/><feComponentTransfer><feFuncR type="gamma" amplitude="1.08" exponent=".92"/><feFuncG type="gamma" amplitude="1.08" exponent=".92"/><feFuncB type="gamma" amplitude="1.08" exponent=".92"/></feComponentTransfer></filter><filter id="s" x="-40%" y="-40%" width="180%" height="180%"><feDropShadow dx="0" dy="18" stdDeviation="18" flood-opacity=".35"/></filter><linearGradient id="g" x1="0" y1="0" x2="1" y2="1"><stop stop-color="#ff7a59"/><stop offset=".52" stop-color="#9d4edd"/><stop offset="1" stop-color="#1f6feb"/></linearGradient><radialGradient id="r"><stop stop-color="#ffb36b" stop-opacity=".72"/><stop offset="1" stop-color="#ff5f6d" stop-opacity="0"/></radialGradient></defs><image href="strategy.webp" width="960" height="540" preserveAspectRatio="xMidYMid slice" filter="url(#p)"/><circle cx="795" cy="150" r="210" fill="url(#r)"/><rect width="960" height="540" fill="url(#g)" opacity=".12"/><g filter="url(#s)" transform="translate(630 110) rotate(-5)"><path d="M0 70 190 25l85 55-190 46z" fill="#fff" fill-opacity=".76"/><path d="M20 116 210 70l65 44-190 48z" fill="#f8f0ff" fill-opacity=".62"/><path d="M42 165 226 122l42 30-184 49z" fill="#ffe4d6" fill-opacity=".54"/><rect x="45" y="45" width="120" height="10" rx="5" fill="#6b2fb8" fill-opacity=".75"/><rect x="60" y="72" width="145" height="9" rx="4" fill="#ff6b57" fill-opacity=".55"/><path d="m182 183 78-88 22 22-83 87-37 13z" fill="url(#g)"/><circle cx="254" cy="104" r="10" fill="#fff" fill-opacity=".8"/></g></svg>