<svg xmlns="http://www.w3.org/2000/svg" viewBox="0 0 960 540"><defs><linearGradient id="bg" x1="0" y1="0" x2="1" y2="1"><stop stop-color="#0a1838"/><stop offset=".5" stop-color="#164ea0"/><stop offset="1" stop-color="#19a8c2"/></linearGradient><linearGradient id="g" x1="0" y1="0" x2="1" y2="1"><stop stop-color="#5ca8ff"/><stop offset=".5" stop-color="#34d6e6"/><stop offset="1" stop-color="#9675ff"/></linearGradient><filter id="b"><feGaussianBlur stdDeviation="52"/></filter><filter id="s" x="-40%" y="-40%" width="180%" height="180%"><feDropShadow dx="0" dy="24" stdDeviation="20" flood-opacity=".42"/></filter><filter id="n"><feTurbulence type="fractalNoise" baseFrequency=".75" numOctaves="3" seed="13"/></filter></defs><rect width="960" height="540" fill="url(#bg)"/><circle cx="205" cy="100" r="185" fill="#6d5cff" opacity=".28" filter="url(#b)"/><circle cx="790" cy="115" r="215" fill="#62eaff" opacity=".42" filter="url(#b)"/><path d="M0 388 960 300v240H0z" fill="#07152c" opacity=".44"/><rect width="960" height="540" filter="url(#n)" opacity=".045"/><g filter="url(#s)" transform="translate(607 108)"><path d="m8 105 166-75 171 75-337 42z" fill="#e8fbff"/><path d="M44 138h264v31H44z" fill="#9be5ff"/><g fill="url(#g)"><path d="M59 169h30v119H59z"/><path d="M110 169h30v119h-30z"/><path d="M161 169h30v119h-30z"/><path d="M212 169h30v119h-30z"/><path d="M263 169h30v119h-30z"/></g><path d="M34 288h283v30H34z" fill="#e8fbff"/><path d="M12 318h327v25H12z" fill="#8dcfff"/><g stroke="#fff" stroke-width="4" fill="none"><path d="M63 79 13 31M281 79l56-49M175 41V0"/></g><g fill="#fff"><circle cx="13" cy="31" r="11"/><circle cx="337" cy="30" r="11"/><circle cx="175" cy="0" r="11"/></g></g></svg>