<svg xmlns="http://www.w3.org/2000/svg" viewBox="0 0 960 540"><defs><linearGradient id="bg" x1="0" y1="1" x2="1" y2="0"><stop stop-color="#082c35"/><stop offset=".52" stop-color="#0d6b5d"/><stop offset="1" stop-color="#30b8c8"/></linearGradient><linearGradient id="g" x1="0" y1="1" x2="1" y2="0"><stop stop-color="#14e6a1"/><stop offset=".55" stop-color="#22c7ff"/><stop offset="1" stop-color="#ffd166"/></linearGradient><filter id="b"><feGaussianBlur stdDeviation="50"/></filter><filter id="s" x="-40%" y="-40%" width="180%" height="180%"><feDropShadow dx="0" dy="22" stdDeviation="18" flood-opacity=".4"/></filter><filter id="n"><feTurbulence type="fractalNoise" baseFrequency=".7" numOctaves="3" seed="8"/></filter></defs><rect width="960" height="540" fill="url(#bg)"/><circle cx="200" cy="100" r="170" fill="#13d7ff" opacity=".28" filter="url(#b)"/><circle cx="780" cy="135" r="210" fill="#43ffd4" opacity=".46" filter="url(#b)"/><path d="M0 400 960 310v230H0z" fill="#041c26" opacity=".44"/><rect width="960" height="540" filter="url(#n)" opacity=".04"/><g filter="url(#s)" transform="translate(590 112)"><ellipse cx="175" cy="302" rx="174" ry="28" fill="#001821" opacity=".3"/><path d="M25 250h48v-93H25z" fill="#14df9a"/><path d="m73 157 18-13v91l-18 15z" fill="#0a8f69"/><path d="M105 250h52V110h-52z" fill="#26c9ff"/><path d="m157 110 19-14v137l-19 17z" fill="#0875b2"/><path d="M193 250h54v-99h-54z" fill="#ffd56a"/><path d="m247 151 19-13v95l-19 17z" fill="#b88723"/><path d="M284 250h58V65h-58z" fill="#8b72ff"/><path d="m342 65 20-14v182l-20 17z" fill="#5541be"/><path d="M12 188 84 143l76 35 79-66 113-70" fill="none" stroke="#fff" stroke-width="11" stroke-linecap="round"/><g fill="#fff"><circle cx="84" cy="143" r="9"/><circle cx="160" cy="178" r="9"/><circle cx="239" cy="112" r="9"/><circle cx="352" cy="42" r="9"/></g><g transform="translate(248 268)"><ellipse cx="32" cy="14" rx="32" ry="14" fill="#fff0a8"/><rect y="14" width="64" height="24" fill="#d8a536"/><ellipse cx="32" cy="38" rx="32" ry="14" fill="#ffd166"/></g></g></svg>