<svg xmlns="http://www.w3.org/2000/svg" viewBox="0 0 960 540"><defs><filter id="p"><feColorMatrix type="saturate" values="1.62"/></filter><filter id="s" x="-40%" y="-40%" width="180%" height="180%"><feDropShadow dx="0" dy="20" stdDeviation="18" flood-opacity=".4"/></filter><linearGradient id="g" x1="0" y1="0" x2="1" y2="1"><stop stop-color="#f97316"/><stop offset=".5" stop-color="#a855f7"/><stop offset="1" stop-color="#2563eb"/></linearGradient><radialGradient id="r"><stop stop-color="#fdba74" stop-opacity=".78"/><stop offset="1" stop-color="#f97316" stop-opacity="0"/></radialGradient></defs><image href="culture-media.webp" width="960" height="540" preserveAspectRatio="xMidYMid slice" filter="url(#p)"/><circle cx="790" cy="145" r="225" fill="url(#r)"/><rect width="960" height="540" fill="url(#g)" opacity=".1"/><g filter="url(#s)" transform="translate(605 105)"><g transform="rotate(-6 160 170)"><path d="M35 54h210l46 45-211 25z" fill="#fff" fill-opacity=".86"/><path d="M80 124h211v165H80z" fill="#f8f2ff" fill-opacity=".82"/><path d="M35 54v165l45 70V124z" fill="#e9d8fd" fill-opacity=".8"/><rect x="112" y="154" width="128" height="13" rx="6" fill="#a855f7"/><rect x="112" y="183" width="96" height="10" rx="5" fill="#f97316"/><rect x="112" y="210" width="142" height="10" rx="5" fill="#2563eb"/></g><g transform="translate(18 292)"><path d="M0 30 105 5l210 44-110 28z" fill="#fff" fill-opacity=".78"/><path d="m105 5 210 44v22L105 29z" fill="#d9c4f3" fill-opacity=".72"/><path d="M0 30v22l105 24V29z" fill="#f4d9c4" fill-opacity=".74"/></g></g></svg>